<svg width="20" height="21" viewBox="0 0 20 21" fill="none" xmlns="http://www.w3.org/2000/svg">
<path d="M20 10.4477C20 9.75865 19.9333 9.04734 19.8222 8.38049H10.1973V12.3149H15.7099C15.4876 13.5819 14.7541 14.6934 13.6649 15.4047L16.9547 17.9609C18.8886 16.1604 20 13.5375 20 10.4477Z" fill="#4280EF"/>
<path d="M10.1973 20.4061C12.9536 20.4061 15.2654 19.4948 16.9547 17.9388L13.6649 15.4048C12.7535 16.0272 11.5754 16.3828 10.1973 16.3828C7.52987 16.3828 5.2848 14.5823 4.46235 12.1816L1.08363 14.7824C2.81745 18.2278 6.32954 20.4061 10.1973 20.4061Z" fill="#34A353"/>
<path d="M4.46235 12.1593C4.04001 10.8923 4.04001 9.51411 4.46235 8.24709L1.08363 5.62415C-0.361211 8.51384 -0.361211 11.9148 1.08363 14.7822L4.46235 12.1593Z" fill="#F6B704"/>
<path d="M10.1973 4.04595C11.6421 4.02373 13.0647 4.57944 14.1095 5.57971L17.0214 2.64557C15.1764 0.911752 12.7313 -0.0218404 10.1973 0.000387949C6.32953 0.000387949 2.81745 2.17877 1.08363 5.62417L4.46235 8.24712C5.2848 5.82422 7.52987 4.04595 10.1973 4.04595Z" fill="#E54335"/>
</svg>
