<svg width="25" height="25" viewBox="0 0 25 25" fill="none" xmlns="http://www.w3.org/2000/svg">
<path d="M4.53125 20.3125C3.99292 20.3125 3.53292 20.1215 3.15125 19.7394C2.76917 19.3577 2.57812 18.889 2.57812 18.3331V6.66687C2.57812 6.11104 2.76917 5.64229 3.15125 5.26062C3.53292 4.87854 3.99292 4.6875 4.53125 4.6875H20.4688C21.0071 4.6875 21.4671 4.87854 21.8488 5.26062C22.2308 5.64229 22.4219 6.11104 22.4219 6.66687V18.3331C22.4219 18.889 22.2308 19.3577 21.8488 19.7394C21.4671 20.1215 21.0071 20.3125 20.4688 20.3125H4.53125ZM12.5 12.8387L21.0938 7.21375L20.7812 6.01562L12.5 11.4325L4.21875 6.01562L3.90625 7.21375L12.5 12.8387Z" fill="#9AA0A6"/>
</svg>
